<svg width="154" height="47" viewBox="0 0 154 47" fill="none" xmlns="http://www.w3.org/2000/svg">
<path d="M35.7152 11.7624L34.8426 9.96277L34.7182 10.0231L34.6032 10.1L35.7152 11.7624ZM46.4285 6.56796L45.761 4.68263L45.6561 4.71977L45.5559 4.76834L46.4285 6.56796ZM59 2.11719V0.117187H58.6564L58.3325 0.231856L59 2.11719ZM83.5 2.11719L83.9801 0.17566L83.7436 0.117187H83.5V2.11719ZM101.5 6.56796L102.354 4.75946L102.174 4.6743L101.98 4.62643L101.5 6.56796ZM135.82 29.7229L134.43 31.1607L134.519 31.247L134.618 31.3217L135.82 29.7229ZM152.281 43.8635C153.374 43.7084 154.135 42.6961 153.98 41.6025L151.453 23.7808C151.297 22.6872 150.285 21.9264 149.192 22.0815C148.098 22.2366 147.337 23.2489 147.492 24.3425L149.739 40.184L133.898 42.4307C132.804 42.5859 132.043 43.5981 132.198 44.6918C132.353 45.7854 133.366 46.5462 134.459 46.3911L152.281 43.8635ZM123 19.251L121.839 20.8793L121.862 20.8959L121.886 20.9118L123 19.251ZM129.5 23.6124L130.89 22.1745L130.762 22.0508L130.614 21.9516L129.5 23.6124ZM17.9982 23.6124L16.8863 21.95L16.6672 22.0965L16.4935 22.2949L17.9982 23.6124ZM112.5 11.7624L113.661 10.1341L113.516 10.0302L113.354 9.95389L112.5 11.7624ZM35.7152 11.7624L36.5877 13.562L47.3011 8.36758L46.4285 6.56796L45.5559 4.76834L34.8426 9.96277L35.7152 11.7624ZM46.4285 6.56796L47.096 8.45329L59.6675 4.00252L59 2.11719L58.3325 0.231856L45.761 4.68263L46.4285 6.56796ZM83.5 2.11719L83.0199 4.05872L101.02 8.50949L101.5 6.56796L101.98 4.62643L83.9801 0.17566L83.5 2.11719ZM135.82 29.7229L134.618 31.3217L150.798 43.4821L152 41.8833L153.202 40.2845L137.022 28.1241L135.82 29.7229ZM123 19.251L121.886 20.9118L128.386 25.2732L129.5 23.6124L130.614 21.9516L124.114 17.5902L123 19.251ZM129.5 23.6124L128.11 25.0503L134.43 31.1607L135.82 29.7229L137.21 28.285L130.89 22.1745L129.5 23.6124ZM59 2.11719V4.11719H71.5V2.11719V0.117187H59V2.11719ZM71.5 2.11719V4.11719H83.5V2.11719V0.117187L71.5 0.117187V2.11719ZM2 41.8833L3.5047 43.2008L19.5029 24.9299L17.9982 23.6124L16.4935 22.2949L0.495303 40.5658L2 41.8833ZM17.9982 23.6124L19.1101 25.2748L36.8271 13.4248L35.7152 11.7624L34.6032 10.1L16.8863 21.95L17.9982 23.6124ZM101.5 6.56796L100.646 8.37646L111.646 13.5709L112.5 11.7624L113.354 9.95389L102.354 4.75946L101.5 6.56796ZM112.5 11.7624L111.339 13.3907L121.839 20.8793L123 19.251L124.161 17.6227L113.661 10.1341L112.5 11.7624Z" fill="#002363"/>
</svg>
